<svg xmlns="http://www.w3.org/2000/svg" viewBox="0 0 64 64"><defs><style>.cls-3{fill:#db9d53}.cls-5{fill:none;stroke:#000;stroke-linecap:round;stroke-linejoin:round;stroke-width:2px}</style></defs><g style="isolation:isolate"><g id="Layer_1" data-name="Layer 1"><g id="Vector"><path d="M11.67 19.22a3.38 3.38 0 0 0-.92.64l-.65.66a3.38 3.38 0 0 0-.71 1l-4.25-4.7a2.42 2.42 0 0 1-2 .87 2.48 2.48 0 0 1 .26-5 2.48 2.48 0 1 1 5 .27 2.52 2.52 0 0 1-.78 1.66z" style="fill:#fff"/><path class="cls-3" d="M61.36 39.39v3.37a3.9 3.9 0 0 1-3.9 3.9H21.05a3.91 3.91 0 0 1-3.91-3.9v-3.75a8.93 8.93 0 1 0 7.06-15.82 22.12 22.12 0 0 1 37.15 16.2z"/><path class="cls-3" d="M31.57 32a8.94 8.94 0 0 1-17.88 0 9.09 9.09 0 0 1 .41-2.67l-4-4a3.38 3.38 0 0 1 0-4.78l.65-.66a3.43 3.43 0 0 1 4.78 0l3.81 3.81a8.77 8.77 0 0 1 3.3-.63 8.19 8.19 0 0 1 1.57.15A8.92 8.92 0 0 1 31.57 32zM52.36 39.72a1.16 1.16 0 0 1-.67.43 23 23 0 0 1-3.67.3c-1.66 0-5-.05-7.49-1.57-3.31-2-4.34-6.09-4.66-8.69a1 1 0 0 1 1.58-1 19.43 19.43 0 0 0 12.75 3.62 2.34 2.34 0 0 1 .36 0 4.32 4.32 0 0 1 2.12 1"/><path style="fill:#333" d="M12.5 46.67v2.38H6.64v4.57h56.57v-6.95H12.5z"/></g><g id="Line"><path class="cls-5" d="M11.67 19.22a3.38 3.38 0 0 0-.92.64l-.65.66a3.38 3.38 0 0 0-.71 1l-4.25-4.7a2.42 2.42 0 0 1-2 .87 2.48 2.48 0 0 1 .26-5 2.48 2.48 0 1 1 5 .27 2.52 2.52 0 0 1-.78 1.66zM61.36 39.39v3.37a3.9 3.9 0 0 1-3.9 3.9H21.05a3.91 3.91 0 0 1-3.91-3.9v-3.75a8.93 8.93 0 1 0 7.06-15.82 22.12 22.12 0 0 1 37.15 16.2z"/><path class="cls-5" d="M31.57 32a8.94 8.94 0 0 1-17.88 0 9.09 9.09 0 0 1 .41-2.67l-4-4a3.38 3.38 0 0 1 0-4.78l.65-.66a3.43 3.43 0 0 1 4.78 0l3.81 3.81a8.77 8.77 0 0 1 3.3-.63 8.19 8.19 0 0 1 1.57.15A8.92 8.92 0 0 1 31.57 32zM52.36 39.72a1.16 1.16 0 0 1-.67.43 23 23 0 0 1-3.67.3c-1.66 0-5-.05-7.49-1.57-3.31-2-4.34-6.09-4.66-8.69a1 1 0 0 1 1.58-1 19.43 19.43 0 0 0 12.75 3.62 2.34 2.34 0 0 1 .36 0 4.32 4.32 0 0 1 2.12 1M12.5 46.67v2.38H6.64v4.57h56.57v-6.95H12.5z"/></g><g id="Shadow" style="opacity:.25;mix-blend-mode:multiply"><path d="M40 23.76a22 22 0 0 1 6.5 15.63v3.37a3.9 3.9 0 0 1-3.9 3.9h14.86a3.9 3.9 0 0 0 3.9-3.9v-3.37a22.08 22.08 0 0 0-29.52-20.82A22.19 22.19 0 0 1 40 23.76zM48.35 46.67h14.86v6.95H48.35z"/></g><g style="mix-blend-mode:overlay"><path d="M28 42.76v-3.37a2.42 2.42 0 0 1 0-.38 8.86 8.86 0 0 1-3.46-7A9.09 9.09 0 0 1 25 29.3l-4-4a3.31 3.31 0 0 1-.94-1.88 7.61 7.61 0 0 0-.72.25l-3.81-3.81a3.41 3.41 0 0 0-3.86-.64l-4.09-4.55A2.52 2.52 0 0 0 8.36 13a2.48 2.48 0 1 0-5-.27 2.48 2.48 0 0 0-.26 5 2.42 2.42 0 0 0 2-.87l4.25 4.74a3.38 3.38 0 0 0 .71 3.74l4 4a9.09 9.09 0 0 0-.37 2.66 8.86 8.86 0 0 0 3.46 7v3.75a3.91 3.91 0 0 0 3.91 3.9H32a3.91 3.91 0 0 1-4-3.89z" style="mix-blend-mode:overlay;fill:#fff" id="Highligth"/></g></g></g></svg>