<svg version="1.1" id="vegetable_1_" xmlns="http://www.w3.org/2000/svg" x="0" y="0" viewBox="0 0 128 128" style="enable-background:new 0 0 128 128" xml:space="preserve"><style>.st0{display:none}.st1{display:inline}.st2{fill:#232323}.st3{display:inline}.st3,.st4{fill-rule:evenodd;clip-rule:evenodd;fill:#232323}</style><g id="row3_1_"><g id="broccoli_1_"><path class="st2" d="M121.3 51.5c-2.2-4.5-5.9-6.8-8.7-7.9.3-5 .2-13.3-2.5-17.8-3.7-6.1-9.9-7.9-13.8-8.5-1.4-4.5-5.2-12-15.5-16.1-7.5-3-13.7.4-17.4 4C59.4 2.7 52.6-.7 46 0c-7.1.8-12.7 7.3-15 10.4-5.9 1.3-21 5.4-24.4 14.5-2 5.5-1.9 10.7.3 15.4 3.4 7.2 10.9 11.3 14.7 13 1.5 6.2 5.2 18.7 10.9 22.3l2.9 21.7-9.3 23.5 18.3 7.2 9.2-23.5L70.1 91c1.3.5 2.5.7 3.6.7h.5c9-.6 15.5-4.7 18.7-7.2 2.7.9 7.1 1.9 11.7.7 7.6-2 14.5-9.2 16.8-15.1 1.3-3.1 2.5-13.3-.1-18.6zm-80.2 39-2.6-1 2.4-11.4c1.7.1 3.3-.1 4.9-.4l-4.7 12.8zm15.7 6.2-2.6-1 4.9-12.5c1.1 1.1 2.3 2.2 3.5 3.2l-5.8 10.3zm56.9-29.8c-1.5 3.8-6.6 8.9-11.1 10-4.1 1.1-8.4-1.1-8.4-1.1l-2.8-1.5-2.2 2.3c-.1.1-5.9 5.9-15.4 6.6-2.5 0-10.6-7.4-16.8-15.5l-2.3-2.9-3.2 1.9c-2.2 1.3-9.7 4.6-14.3 1.7-2.3-1.5-5.9-11.3-7.6-19.2l-.7-2.2-2.2-.8c-.1 0-9.1-3.2-12.1-9.5-1.3-2.7-1.3-5.6-.1-8.9 1.6-4.3 12.7-8.2 19.7-9.5L36 18l1-1.5c1.6-2.5 6.1-7.7 9.9-8.1 5.4-.6 12.4 4 14.7 5.8l3.8 3 2.5-4.1c.1-.2 2.8-4.6 7.2-4.6.8 0 1.7.2 2.7.5 9.9 3.9 10.9 12.3 10.9 12.6l.4 4.1 4.1-.2c.1 0 6.8-.3 9.8 4.6 1.6 2.6 1.6 11.2 1.1 16.1l-.4 4 4 .6c.2 0 4.3.6 6.2 4.4 1 2.4.5 9.9-.2 11.7z"/><path id="shade_11_" class="st4" d="M92.8 21.3s9.3-.6 13.6 6.6c3.1 5.1 1.7 18.8 1.7 18.8s6.5.8 9.4 6.7c1.8 3.8 1.1 12.6.1 15.1-2 5-8.1 11.1-14 12.6-5.8 1.5-11.5-1.5-11.5-1.5s-6.8 7.1-18.2 7.9c-6.8.5-20.4-17.1-20.4-17.1s29.6 5.2 38.5-5.9c10.6-13.2.8-43.2.8-43.2z"/></g></g></svg>