<svg xmlns="http://www.w3.org/2000/svg" width="24" height="24"><path d="M20.985 8.423a.56.56 0 0 0-.01-.081L20 5.418V3.5a.5.5 0 0 0-.5-.5h-7a.5.5 0 0 0-.5.5v1.919l-.974 2.923a.457.457 0 0 0 0 .052A.463.463 0 0 0 11 8.5v2.676l-5.392-2.14a.5.5 0 0 0-.458.046 9.135 9.135 0 0 0-2.26 2.109A5.32 5.32 0 0 0 2 13.458V20.5a.5.5 0 0 0 .5.5h18a.5.5 0 0 0 .5-.5v-12a.5.5 0 0 0-.015-.077zM13 4h6v1h-6zm-1 7.5V9h4.618a.5.5 0 0 0 0-1h-4.424l.666-2h6.28L20 8.582V12h-6.92l-1.094-.435A.38.38 0 0 0 12 11.5zm8 4.5h-4v-2.5a.491.491 0 0 0-.028-.137.337.337 0 0 0-.012-.055.447.447 0 0 0-.053-.078.44.44 0 0 0-.054-.079.3.3 0 0 0-.047-.032.474.474 0 0 0-.116-.076L15.6 13H20zM3.725 11.742a7.588 7.588 0 0 1 1.763-1.678L12.885 13H3.123a4.994 4.994 0 0 1 .602-1.258zM7 15a1 1 0 1 1-1-1 1 1 0 0 1 1 1zm-4-1h1.278A1.978 1.978 0 0 0 4 15a2 2 0 0 0 4 0 1.978 1.978 0 0 0-.278-1H15v1.278A1.978 1.978 0 0 0 14 15a2 2 0 0 0 0 4 1.978 1.978 0 0 0 1-.278V20H9.908a1.483 1.483 0 0 0 .092-.5 1.5 1.5 0 0 0-3 0 1.483 1.483 0 0 0 .092.5H3zm12 3a1 1 0 1 1-1-1 1 1 0 0 1 1 1zm-7 2.5a.5.5 0 1 1 .5.5.5.5 0 0 1-.5-.5zm8 .5v-3h4v3z"/></svg>